<svg width="12" height="17" viewBox="0 0 12 17" fill="none" xmlns="http://www.w3.org/2000/svg">
<g id="Group 65939">
<path id="Union" fill-rule="evenodd" clip-rule="evenodd" d="M6.02309 4.43674C7.04382 4.43674 7.87128 3.60928 7.87128 2.58855C7.87128 1.56782 7.04382 0.740356 6.02309 0.740356C5.00236 0.740356 4.1749 1.56782 4.1749 2.58855C4.1749 3.60928 5.00236 4.43674 6.02309 4.43674ZM1.33734 13.0417L1.33766 13.0422L1.33699 13.0419L1.33734 13.0417ZM1.33734 13.0417L0.758359 12.0684L2.48225 11.0436C2.59224 10.9783 2.66024 10.8583 2.66024 10.7303V6.90942C2.66024 6.08392 3.3322 5.41204 4.15781 5.41204H8.0159C8.84151 5.41204 9.51347 6.08392 9.51347 6.90942V10.7303C9.51347 10.8583 9.5818 10.9783 9.69146 11.0433L11.3594 12.0348L10.7801 13.0086L9.11217 12.0171C8.66053 11.7485 8.37988 11.2556 8.37988 10.73V6.90909C8.37988 6.70813 8.21655 6.54482 8.01557 6.54482H4.15748C3.95649 6.54482 3.79317 6.70813 3.79317 6.90909V10.73C3.79317 11.2552 3.51252 11.7485 3.06088 12.0171L1.33734 13.0417ZM2.05813 16.2597H4.83205H5.09428H10.0594C10.787 16.2597 11.3993 15.7871 11.5836 15.0832C11.7676 14.3794 11.4653 13.6672 10.831 13.3109L8.22517 11.8472C8.08585 11.7689 7.99952 11.6212 7.99952 11.4616V7.22009H6.86626V11.4616C6.86626 12.0302 7.17424 12.5564 7.67021 12.835L10.276 14.2987C10.5524 14.454 10.5077 14.7186 10.4874 14.7963C10.467 14.8736 10.3764 15.1266 10.0594 15.1266H5.09428H4.83205C4.6014 15.1266 4.41374 14.9389 4.41374 14.7083C4.41374 14.4777 4.6014 14.2901 4.83205 14.2901H7.91419V13.1569H4.83205C3.97644 13.1569 3.28048 13.8528 3.28048 14.7083C3.28048 14.8532 3.30043 14.9935 3.33774 15.1266H2.05813C1.74115 15.1266 1.65049 14.8736 1.63016 14.7963C1.60983 14.7186 1.56516 14.454 1.84148 14.2987L4.44731 12.835C4.94328 12.5564 5.25127 12.0302 5.25127 11.4616V7.22009H4.118V11.4616C4.118 11.6212 4.03168 11.7689 3.89235 11.8472L1.28652 13.3109C0.652226 13.6672 0.349576 14.3794 0.533898 15.0832C0.717886 15.7868 1.33051 16.2597 2.05813 16.2597Z" fill="#D0434F"/>
</g>
</svg>
