<svg width="23" height="23" viewBox="0 0 23 23" fill="none" xmlns="http://www.w3.org/2000/svg">
<g id="dashboard">
<path id="Union" fill-rule="evenodd" clip-rule="evenodd" d="M5.05396 4.86677C6.74123 3.17732 9.01785 2.2394 11.3836 2.25909C13.7493 2.2394 16.0259 3.17732 17.7132 4.86677C19.4005 6.55622 20.3603 8.85898 20.3819 11.269C20.3603 13.6791 19.4005 15.9819 17.7132 17.6713C16.0259 19.3608 13.7493 20.2987 11.3836 20.279C9.01785 20.2987 6.74123 19.3608 5.05396 17.6713C3.36669 15.9819 2.40681 13.6791 2.38525 11.269C2.40681 8.85898 3.36669 6.55622 5.05396 4.86677ZM6.01867 16.6884C7.45025 18.1174 9.37942 18.9101 11.3836 18.8928C13.3877 18.9101 15.3169 18.1174 16.7485 16.6884C18.1801 15.2595 18.9973 13.3107 19.0213 11.269C18.9973 9.22738 18.1801 7.27861 16.7485 5.84963C15.3169 4.42066 13.3877 3.62798 11.3836 3.64524C9.37942 3.62798 7.45025 4.42066 6.01867 5.84963C4.58709 7.27861 3.76982 9.22738 3.74589 11.269C3.76982 13.3107 4.58709 15.2595 6.01867 16.6884ZM15.3657 10.576H16.8987C17.0645 10.5956 17.2174 10.6765 17.3283 10.8035C17.4393 10.9304 17.5006 11.0944 17.5006 11.2644C17.5006 11.4344 17.4393 11.5985 17.3283 11.7254C17.2174 11.8523 17.0645 11.9333 16.8987 11.9529H15.52L14.2772 14.4479C14.1797 14.6377 14.033 14.7966 13.8531 14.9075C13.6733 15.0183 13.467 15.077 13.2568 15.077C13.0465 15.077 12.8403 15.0183 12.6604 14.9075C12.4805 14.7966 12.3338 14.6377 12.2363 14.4479L9.51502 9.05121L8.26324 11.3615C8.16534 11.5437 8.02097 11.6958 7.84537 11.8015C7.66976 11.9072 7.46942 11.9627 7.26544 11.9621H5.84131C5.66088 11.9621 5.48784 11.8891 5.36026 11.7591C5.23267 11.6291 5.161 11.4529 5.161 11.269C5.161 11.0852 5.23267 10.9089 5.36026 10.779C5.48784 10.649 5.66088 10.576 5.84131 10.576H7.13845L8.54444 8.02546C8.64037 7.84078 8.78404 7.68634 8.95991 7.57885C9.13577 7.47135 9.33714 7.41488 9.54224 7.41556C9.75125 7.41788 9.95564 7.47855 10.1332 7.59097C10.3107 7.70339 10.4546 7.86326 10.5491 8.05318L13.2704 13.4407L14.3498 11.2136C14.4442 11.0216 14.5893 10.8603 14.7688 10.7476C14.9482 10.635 15.155 10.5755 15.3657 10.576Z" fill="#0076D6"/>
</g>
</svg>
