<svg width="16" height="15" viewBox="0 0 16 15" fill="none" xmlns="http://www.w3.org/2000/svg">
<g id="Bike">
<path id="Vector" d="M3.66372 14.8889C1.92483 14.8889 0.510254 13.4745 0.510254 11.7358C0.510254 9.99715 1.92483 8.58276 3.66372 8.58276C5.40261 8.58276 6.81719 9.99715 6.81719 11.7358C6.81719 13.4745 5.40261 14.8889 3.66372 14.8889ZM3.66372 9.7492C2.56812 9.7492 1.67685 10.6404 1.67685 11.7358C1.67685 12.8313 2.56812 13.7224 3.66372 13.7224C4.75932 13.7224 5.65059 12.8313 5.65059 11.7358C5.65059 10.6404 4.75932 9.7492 3.66372 9.7492Z" fill="#B55B0C"/>
<path id="Vector_2" d="M10.4297 2.86285C11.1826 2.86285 11.7929 2.25259 11.7929 1.49978C11.7929 0.746982 11.1826 0.136719 10.4297 0.136719C9.67675 0.136719 9.06641 0.746982 9.06641 1.49978C9.06641 2.25259 9.67675 2.86285 10.4297 2.86285Z" fill="#B55B0C"/>
<path id="Vector_3" d="M12.0763 14.8889C10.3374 14.8889 8.92285 13.4745 8.92285 11.7358C8.92285 9.99716 10.3374 8.58276 12.0763 8.58276C13.8152 8.58276 15.2298 9.99716 15.2298 11.7358C15.2298 13.4745 13.8152 14.8889 12.0763 14.8889ZM12.0763 9.7492C10.9807 9.7492 10.0894 10.6404 10.0894 11.7358C10.0894 12.8313 10.9807 13.7224 12.0763 13.7224C13.1719 13.7224 14.0632 12.8313 14.0632 11.7358C14.0632 10.6404 13.1719 9.7492 12.0763 9.7492Z" fill="#B55B0C"/>
<path id="Vector_4" d="M8.33938 12.2911L7.18845 12.1005L7.74941 8.71147L5.05425 6.99714L5.01025 6.04399L8.92267 3.01392L9.78395 3.18122L10.9249 5.13784H12.8251V6.30428H10.5899L10.0859 6.015L9.11132 4.34332L6.3805 6.45825L8.70102 7.93429L8.96334 8.52151L8.33938 12.2911Z" fill="#B55B0C"/>
</g>
</svg>
