<svg width="16" height="15" viewBox="0 0 16 15" fill="none" xmlns="http://www.w3.org/2000/svg">
<g id="Group 65940">
<path id="Vector (Stroke)" fill-rule="evenodd" clip-rule="evenodd" d="M12.323 0.107178L12.691 0.460911C14.2776 1.98606 15.266 4.13158 15.266 6.50707C15.266 11.1383 11.5116 14.8927 6.88036 14.8927C4.50487 14.8927 2.35936 13.9043 0.834202 12.3177L0.480469 11.9497L12.323 0.107178ZM12.325 1.57775L11.8548 2.04794C12.8256 3.17088 13.5406 4.55428 13.5406 6.2288C13.5406 10.0772 10.4208 13.197 6.57234 13.197C4.89782 13.197 3.51442 12.4821 2.39148 11.5112L1.95104 11.9517C3.25469 13.1328 4.98322 13.8515 6.88036 13.8515C10.9366 13.8515 14.2248 10.5633 14.2248 6.50707C14.2248 4.60993 13.5061 2.8814 12.325 1.57775ZM3.12977 10.7729C4.10983 11.6047 5.2461 12.1558 6.57234 12.1558C9.84574 12.1558 12.4993 9.5022 12.4993 6.2288C12.4993 4.90256 11.9482 3.76629 11.1165 2.78622L3.12977 10.7729ZM10.4206 6.70796L9.40917 5.69649L10.1454 4.96024L11.1569 5.97171L10.4206 6.70796ZM10.4355 9.05815L9.42404 8.04668L10.1603 7.31042L11.1718 8.3219L10.4355 9.05815ZM6.30038 10.8282L5.2889 9.81676L6.02516 9.0805L7.03663 10.092L6.30038 10.8282ZM8.66544 10.8282L7.65396 9.81676L8.39022 9.0805L9.40169 10.092L8.66544 10.8282Z" fill="#8FAE19"/>
</g>
</svg>
