<svg width="16" height="15" viewBox="0 0 16 15" fill="none" xmlns="http://www.w3.org/2000/svg">
<g id="Sono">
<path id="Vector" d="M11.1772 6.88536V6.18883L12.5282 4.59215H11.2196V3.82996H13.6928V4.49016L12.3302 6.12284H13.6928V6.88536H11.1772Z" fill="#5A3B94"/>
<path id="Vector_2" d="M8.15088 4.17052V3.47432L9.50179 1.87763H8.19288V1.11511H10.6664V1.77532L9.30348 3.40833H10.6664V4.17052H8.15088Z" fill="#5A3B94"/>
<path id="Vector_3" d="M12.6943 3.22179V2.52559L14.0452 0.928896H12.7363V0.166382H15.2098V0.826581L13.8469 2.4596H15.2098V3.22179H12.6943Z" fill="#5A3B94"/>
<path id="Vector_4" d="M11.3464 10.0745L11.2868 10.1048C10.6065 10.4507 9.87354 10.626 9.10859 10.626C6.45309 10.626 4.29256 8.46577 4.29256 5.81062C4.29256 5.30339 4.37222 4.80149 4.52921 4.31958L4.54988 4.25593L3.79559 3.61072L3.73593 3.64105C2.77233 4.13096 1.95905 4.87414 1.38442 5.79097C0.792786 6.73445 0.480469 7.8239 0.480469 8.94235C0.480469 10.5304 1.0991 12.0231 2.22202 13.1462C3.34495 14.269 4.8382 14.8875 6.42643 14.8875C7.70668 14.8875 8.92626 14.4866 9.95353 13.7284C10.9595 12.9856 11.6951 11.9674 12.0804 10.7833L12.1011 10.7197L11.3468 10.0745H11.3464ZM3.17797 5.38871C3.16797 5.52901 3.16296 5.67032 3.16296 5.81062C3.16296 9.08865 5.83013 11.7558 9.10859 11.7558C9.5599 11.7558 10.0065 11.7058 10.4392 11.6065C10.1295 12.0734 9.74088 12.4807 9.28191 12.8196C8.45063 13.4335 7.46303 13.7577 6.4261 13.7577C3.7706 13.7577 1.61007 11.5975 1.61007 8.94235C1.61007 8.03652 1.86305 7.15437 2.34169 6.39085C2.57467 6.01959 2.85499 5.68332 3.17764 5.38871H3.17797Z" fill="#5A3B94"/>
</g>
</svg>
